<svg xmlns="http://www.w3.org/2000/svg" viewBox="0 0 190 540" width="190" height="540"><g fill="none"><g transform="translate(0 8)"><path fill="#44B449" d="M48 272.8v7.6l8.5 7.6L73 273.2V265l-16.5 14.9zM22.4 316v3.5l4.1 3.6 6.9-6.2v-3.8l-6.9 6.2z"/><path fill="#C0C0C0" d="M8 272.8v7.6l8.6 7.6L33 273.2V265l-16.4 14.9z"/><path fill="#FE7A16" d="M45.1 183h29l-14.4-15z"/><path fill="#818185" d="M5.2 183h29l-14.5-15z"/><path fill="#FE7A16" d="M59.6 235L74 220H45zM6.5 314.3l-6.5 7h13z"/><path fill="#818185" d="M7.2 378.5l-7-6.5v13zm46.9 87.1l-7-6.4v13zm-47.6.1l7 6.5v-13zM26.8 382l6.4-7h-13z"/><path fill="#B8B8B8" d="M6.5 333.3l-6.5 7h13z"/><path fill="#818185" d="M19.7 235l14.5-15h-29z"/><path fill="#FFD83D" d="M59.1 129l-6.5 4.8L55 126l-6.4-4.6h8l2.5-7.8 2.5 7.8h8l-6.4 4.6 2.4 7.8z"/><path fill="#EAC328" d="M59.1 115.3l1.9 5.9.2.7H68l-5 3.7-.6.4.2.7 1.9 5.9-5-3.7-.6-.4-.6.4-5 3.7 1.9-5.9.2-.7-.6-.4-5-3.7h6.8l.2-.7 2.3-5.9zm0-3.3l-2.9 8.8H47l7.4 5.5-2.9 8.8 7.4-5.5 7.4 5.5-2.9-8.8 7.4-5.5h-9.2l-2.5-8.8z"/><path fill="#C0C0C0" d="M19 112l2.8 8.8H31l-7.4 5.4 2.9 8.8-7.5-5.5-7.5 5.5 2.9-8.8-7.4-5.4h9.2z"/><circle cx="65" cy="397" r="3" fill="#C96"/><circle cx="85" cy="397" r="3" fill="#C5C5C5"/><circle cx="105" cy="397" r="3" fill="#FC0"/><path fill="#9E9E9E" d="M47.2 359h2v2h-2zm3 3h2v2h-2zm6 0h2v2h-2zm6 0h2v2h-2zm6 0h2v2h-2zm-14.9-3h2v2h-2zm6 0h2v2h-2zm6 0h2v2h-2zm6.1 0h2v2h-2z"/><path fill="#C5C5C5" d="M.2 392v31h3.4c.3-5.5 3.7-10.1 8.3-11.8V410a6.72 6.72 0 0 1 3.8-12.3 6.72 6.72 0 0 1 3.8 12.3v1.2c4.6 1.7 8 6.3 8.3 11.8h3.4v-31H.2z"/><path fill="#FFF" d="M3.7 423H28c-.3-5.5-3.7-10.1-8.3-11.8V410a6.72 6.72 0 0 0-3.8-12.3 6.72 6.72 0 0 0-3.8 12.3v1.2c-4.6 1.7-8.1 6.3-8.4 11.8z"/><path fill="#B8B8B8" d="M60.3 332h1.9v14h-1.9z"/><path fill="#CCC" d="M63.2 333h10.1v8H63.2z"/><path fill="#D35F5F" d="M60.3 312.1h1.9v14h-1.9z"/><path fill="#F89393" d="M63.2 313.1h10.1v8H63.2z"/><path fill="#FE6502" d="M80.3 312.1h14v14h-14z"/><path fill="#FFF" d="M83.5 321.5c-.8 0-1.4.6-1.4 1.4 0 .8.6 1.4 1.4 1.4.8 0 1.4-.6 1.4-1.4 0-.7-.6-1.4-1.4-1.4zm-1.4-4v2a4.76 4.76 0 0 1 4.8 4.8h2c.1-3.8-3-6.8-6.8-6.8zm0-3.6v2c4.6 0 8.4 3.8 8.4 8.4h2c0-5.7-4.7-10.4-10.4-10.4z"/><path d="M22.6 339.1l-.7 3.2 3.2-.7zm4.41-4.26l2.47 2.47-3.6 3.61-2.48-2.47zm2.09-1.54c-.4 0-.8.1-1.1.4l-.7.7 2.5 2.5.7-.7c.2-.3.4-.7.4-1.1 0-1-.8-1.8-1.8-1.8z" fill="#7A7A7A"/><g transform="translate(100 437)"><circle cx="7" cy="6.8" r="6.5" fill="#C03433"/><path fill="#FFF" d="M10.2 8.7L8.3 6.8l1.9-1.9v-.3l-.9-.9c-.1-.1-.1-.1-.2 0H9L7.1 5.6 5.2 3.7h-.3l-.9.9c-.1.1-.1.1 0 .2v.1l1.9 1.9L4 8.7V9l.9.9c.1.1.1.1.2 0h.1L7.1 8 9 9.9h.3l.9-.9v-.3c0 .1 0 .1 0 0z"/></g><g transform="translate(40 332)"><circle cx="7.2" cy="6.9" r="6.5" fill="#C03433"/><path fill="#FFF" d="M10.4 8.8L8.5 6.9 10.4 5v-.3l-.9-.9c-.1-.1-.1-.1-.2 0h-.1L7.3 5.7 5.4 3.8h-.3l-.9.9c-.1.1-.1.1 0 .2V5l1.9 1.9-1.9 1.9v.3l.9.9c.1.1.1.1.2 0h.1l1.9-1.9L9.2 10h.3l.9-.9v-.3c0 .1 0 0 0 0z"/></g><g transform="translate(40 311)"><circle cx="7.2" cy="7.1" r="6.5" fill="#CCC"/><path fill="#FFF" d="M10.4 9.1L8.5 7.2l1.9-1.9V5l-.9-.9c-.1-.1-.1-.1-.2 0h-.1l-2 1.8L5.3 4H5l-.9.9c-.1.1-.1.1 0 .2v.1L6 7.1 4.1 9v.3l.9.9c.1.1.1.1.2 0h.1l1.9-1.9 1.9 1.9h.3l.9-.9c.1 0 .1-.1.1-.2z"/></g><path d="M37.7 40.9c0 1.2.6 1.9 1.8 1.9.8 0 1.2-.2 1.7-.7l.9.8c-.7.7-1.4 1.1-2.6 1.1-1.7 0-3.1-.9-3.1-3.5 0-2.2 1.2-3.5 2.9-3.5 1.8 0 2.9 1.4 2.9 3.3v.6h-4.5zm3-1.9c-.2-.5-.7-.9-1.4-.9s-1.2.4-1.4.9c-.1.3-.2.5-.2.9h3.1c0-.4 0-.6-.1-.9zm10.9 5v-4.2c0-1.1-.6-1.5-1.4-1.5-.7 0-1.4.5-1.4 1.5V44h-1.4v-4.2c0-1.1-.6-1.5-1.4-1.5-.8 0-1.4.5-1.4 1.5V44h-1.4v-6.9h1.4v.7c.5-.5 1.1-.8 1.8-.8.9 0 1.5.3 2 1 .6-.7 1.3-1 2.2-1 .7 0 1.3.2 1.7.6.5.5.7 1.2.7 1.9V44h-1.4zm9-3.8h-2.2V44h-1.5v-9.7h3.7c1.9 0 3.1 1.3 3.1 2.9 0 1.7-1.2 3-3.1 3zm-.1-4.6h-2.1v3.2h2.1c1 0 1.7-.6 1.7-1.6s-.7-1.6-1.7-1.6zm8.3 7.6c-.4.5-1.1.8-2.1.8s-1.6-.4-2.1-.8c-.7-.7-.8-1.5-.8-2.7 0-1.2.2-2 .8-2.7.4-.5 1.1-.8 2.1-.8s1.6.4 2.1.8c.7.7.8 1.5.8 2.7 0 1.3-.1 2.1-.8 2.7zm-1-4.6c-.3-.3-.6-.4-1-.4s-.7.1-1 .4c-.4.4-.5 1.1-.5 1.9 0 .7.1 1.5.5 1.9.3.3.6.4 1 .4s.8-.1 1-.4c.4-.4.5-1.1.5-1.9 0-.7-.1-1.4-.5-1.9zm6.8.2c-.3-.3-.6-.5-1-.5-.7 0-1.4.6-1.4 1.5V44h-1.4v-6.9h1.4v.7c.4-.5 1.1-.8 1.8-.8s1.2.2 1.6.7l-1 1.1zm3.8 5.2c-1.3 0-1.9-.9-1.9-1.9v-7h1.4v2h1.6l-.8 1.1h-.8V42c0 .5.2.8.8.8h.6V44h-.9zm6.2 0v-.7c-.5.5-1.1.8-1.8.8s-1.3-.2-1.7-.6c-.5-.5-.7-1.2-.7-1.9v-4.4h1.4v4.2c0 1.1.6 1.5 1.4 1.5.8 0 1.4-.5 1.4-1.5v-4.2H86V44h-1.4zm5.1 2.8c-1 0-1.7-.2-2.4-.9l.9-.9c.4.4.8.6 1.5.6 1.2 0 1.6-.8 1.6-1.8V43c-.5.6-1.1.8-1.8.8s-1.3-.2-1.6-.6c-.7-.7-.8-1.6-.8-2.8 0-1.2.1-2.1.8-2.8.4-.4 1-.6 1.7-.6s1.3.2 1.8.8v-.7h1.3V44c0 1.6-1.2 2.8-3 2.8zm.2-8.6c-1.3 0-1.4 1.1-1.4 2.2s.2 2.2 1.4 2.2 1.4-1.1 1.4-2.2-.2-2.2-1.4-2.2zm8.3 5.8v-.7c-.5.5-1.1.8-1.8.8s-1.3-.2-1.7-.6c-.5-.5-.7-1.2-.7-1.9v-4.4h1.4v4.2c0 1.1.6 1.5 1.4 1.5.8 0 1.4-.5 1.4-1.5v-4.2h1.4V44h-1.4zm4.1-3.1c0 1.2.6 1.9 1.8 1.9.8 0 1.2-.2 1.7-.7l.9.8c-.7.7-1.4 1.1-2.6 1.1-1.7 0-3.1-.9-3.1-3.5 0-2.2 1.2-3.5 2.9-3.5 1.8 0 2.9 1.4 2.9 3.3v.6h-4.5zm2.8-5.1l-1.2-1.3-1.2 1.3h-1.2l1.8-2.2h1.2l1.8 2.2h-1.2zm.1 3.2c-.2-.5-.7-.9-1.4-.9s-1.2.4-1.4.9c-.1.3-.2.5-.2.9h3.1c.1-.4 0-.6-.1-.9zm5.2 5.1c-1.1 0-2.1-.2-2.9-1l.9-.9c.6.6 1.3.7 2 .7.8 0 1.5-.3 1.5-1 0-.5-.3-.8-.9-.8l-1.1-.1c-1.3-.1-2-.7-2-1.9 0-1.3 1.2-2.1 2.6-2.1 1 0 1.9.2 2.6.8l-.9.9c-.4-.4-1-.5-1.7-.5-.8 0-1.3.4-1.3.9 0 .4.2.7 1 .8l1.1.1c1.3.1 2.1.7 2.1 1.9-.1 1.4-1.3 2.2-3 2.2z" fill="#BCBBBB"/><path fill="#222426" d="M42.8 23.3l-2.2-.2c-1.7-.1-2.3-.8-2.3-2 0-1.4 1-2.2 3-2.2 1.4 0 2.6.3 3.6 1.1l1.3-1.3c-1.2-1-2.9-1.4-4.8-1.4-2.9 0-4.9 1.5-4.9 3.9 0 2.2 1.4 3.4 4 3.6l2.2.2c1.6.1 2.2.8 2.2 2 0 1.6-1.4 2.4-3.6 2.4-1.7 0-3.1-.4-4.2-1.6l-1.3 1.3c1.5 1.4 3.2 1.9 5.5 1.9 3.2 0 5.5-1.5 5.5-4.1 0-2.5-1.6-3.4-4-3.6zm16.8-6c-2.2 0-3.5.4-4.7 1.9l1.3 1.3c.8-1.1 1.7-1.5 3.4-1.5 2.5 0 3.4 1 3.4 2.9v1.3h-4c-3 0-4.6 1.5-4.6 3.9 0 1.1.4 2.1 1 2.7.8.9 1.9 1.2 3.8 1.2 1.8 0 2.8-.4 3.9-1.4v1.3h2v-9.1c-.1-3-1.9-4.5-5.5-4.5zm3.4 8.8c0 1.1-.2 1.9-.7 2.3-.8.8-1.9.9-3 .9-2.1 0-3.1-.7-3.1-2.3 0-1.6 1-2.4 3-2.4H63v1.5zm9.7-7.1c1.3 0 2.1.4 3.1 1.5l1.3-1.3c-1.4-1.5-2.5-2-4.4-2-3.4 0-5.9 2.3-5.9 6.9 0 4.6 2.6 6.9 5.9 6.9 1.9 0 3-.5 4.4-2l-1.3-1.3c-1 1.1-1.8 1.5-3.1 1.5s-2.4-.5-3.1-1.5c-.6-.9-.9-1.9-.9-3.6 0-1.7.2-2.7.9-3.6.7-1 1.8-1.5 3.1-1.5zm16.8-1.6h-2.4L81 23.3V11.5h-2v19.4h2V26l2.4-2.4 4.5 7.3h2.4l-5.6-8.6 4.8-4.9zm9.2-.6c-2.1 0-3.5.8-4.3 1.7-1.3 1.3-1.6 2.9-1.6 5.4 0 2.5.3 4.1 1.6 5.4.9.9 2.3 1.7 4.3 1.7 2.1 0 3.5-.8 4.3-1.7 1.3-1.3 1.6-2.9 1.6-5.4 0-2.5-.3-4.1-1.6-5.4-.8-1-2.2-1.7-4.3-1.7zm1.7 10.5c-.4.4-.9.6-1.6.6-.7 0-1.2-.2-1.6-.6-.7-.7-.8-2-.8-3.4s.1-2.7.8-3.4c.4-.4.9-.6 1.6-.6.7 0 1.2.2 1.6.6.7.7.8 1.9.8 3.4 0 1.4-.1 2.6-.8 3.4zM114 16.9l-2.8 8.6-2.8-8.6h-3.7l5.2 14h2.7l5.1-14H114zm9.6-.1c-3.6 0-6.1 2.6-6.1 7.1 0 5.7 3.2 7.2 6.5 7.2 2.5 0 3.9-.8 5.3-2.2l-2.1-2.1c-.9.9-1.6 1.2-3.2 1.2-2 0-3.1-1.3-3.1-3.1h8.7v-1.6c.1-3.7-2.1-6.5-6-6.5zm-2.7 5.8c0-.6.1-1 .3-1.5.4-.8 1.2-1.4 2.3-1.4 1.2 0 2 .6 2.3 1.4.2.5.3.9.3 1.5h-5.2zm13.9-4.4v-1.3h-3.4v14h3.5v-8.4c0-1.8 1.2-2.6 2.3-2.6.9 0 1.3.3 1.8.8l2.6-2.7c-1-1-1.9-1.3-3.3-1.3-1.5.1-2.8.7-3.5 1.5zm7.9-2.8v15.4h3.5v-11h2.6v-2.7h-2.6v-1.5c0-.8.4-1.3 1.2-1.3h1.3v-3h-2c-2.8.1-4 2.1-4 4.1zm20.4 1.4c-2.1 0-3.5.8-4.3 1.7-1.3 1.3-1.6 2.9-1.6 5.4 0 2.5.3 4.1 1.6 5.4.9.9 2.3 1.7 4.3 1.7 2.1 0 3.5-.8 4.3-1.7 1.3-1.3 1.6-2.9 1.6-5.4 0-2.5-.3-4.1-1.6-5.4-.8-1-2.2-1.7-4.3-1.7zm1.7 10.5c-.4.4-.9.6-1.6.6-.7 0-1.2-.2-1.6-.6-.7-.7-.8-2-.8-3.4s.1-2.7.8-3.4c.4-.4.9-.6 1.6-.6.7 0 1.2.2 1.6.6.7.7.8 1.9.8 3.4 0 1.4-.1 2.6-.8 3.4zm20.7-10.4l-2.3 8.6-2.9-8.6h-2.5l-2.8 8.6-2.3-8.6H169l4.3 14h2.9l2.9-8.8 2.9 8.8h2.9l4.3-14h-3.7zm-31.6 9.9V11.4h-3.5v15.4c0 2 1.2 4 4.1 4h2v-3h-1.3c-.9.1-1.3-.3-1.3-1zM52.2 19.6l1.8-1.8h-3.7v-4.4h-2v13.9c0 2 1.1 3.6 3.4 3.6h1.4v-1.7h-1c-1.3 0-1.8-.7-1.8-2v-7.7l1.9.1z"/><path fill="#BCBBBB" d="M26.5 34.2v-10h3.3v13.3H0V24.2h3.3v10z"/><path fill="#F48024" d="M7 23.3l16.2 3.4.7-3.2-16.2-3.4-.7 3.2zm2.1-7.8l15 7 1.4-3-15-7-1.4 3zm4.2-7.3L26 18.8l2.1-2.5L15.4 5.7l-2.1 2.5zM21.5.3l-2.7 2 9.9 13.3 2.7-2L21.5.3zM6.6 30.9h16.6v-3.3H6.6v3.3z"/></g><path fill="#222426" d="M33.9 518.6l-1.7-.2c-1.3-.1-1.9-.6-1.9-1.6 0-1.1.8-1.8 2.4-1.8 1.1 0 2.1.3 2.8.8l1-1c-1-.8-2.3-1.1-3.8-1.1-2.3 0-3.9 1.2-3.9 3.1 0 1.8 1.1 2.7 3.2 2.9l1.8.2c1.2.1 1.8.6 1.8 1.6 0 1.3-1.1 1.9-2.8 1.9-1.3 0-2.5-.3-3.3-1.2l-1 1c1.2 1.1 2.6 1.5 4.4 1.5 2.6 0 4.3-1.2 4.3-3.2-.2-2-1.5-2.7-3.3-2.9zm13.3-4.8c-1.7 0-2.8.3-3.7 1.5l1 1c.6-.9 1.3-1.2 2.7-1.2 1.9 0 2.7.8 2.7 2.3v1h-3.2c-2.4 0-3.7 1.2-3.7 3.1 0 .8.3 1.6.8 2.2.7.7 1.5 1 3 1 1.4 0 2.2-.3 3.1-1.1v1h1.6v-7.2c-.1-2.4-1.5-3.6-4.3-3.6zm2.7 7c0 .9-.2 1.5-.5 1.8-.7.6-1.5.7-2.4.7-1.7 0-2.4-.6-2.4-1.8 0-1.2.8-1.9 2.4-1.9h3l-.1 1.2zm7.6-5.6c1 0 1.6.3 2.4 1.2l1-1c-1.1-1.2-2-1.6-3.5-1.6-2.7 0-4.7 1.8-4.7 5.5 0 3.6 2 5.5 4.7 5.5 1.5 0 2.4-.4 3.5-1.6l-1.1-1c-.8.9-1.4 1.2-2.4 1.2s-1.9-.4-2.5-1.2c-.5-.7-.7-1.5-.7-2.9 0-1.3.2-2.2.7-2.9.7-.8 1.6-1.2 2.6-1.2zm13.4-1.3H69l-4.8 4.7v-9.5h-1.6v15.4h1.6v-3.9l1.9-1.9 3.6 5.8h1.9l-4.4-6.9 3.7-3.7zm7.3-.5c-1.6 0-2.7.6-3.4 1.4-1 1-1.3 2.3-1.3 4.3s.3 3.3 1.3 4.3c.7.7 1.8 1.4 3.4 1.4 1.6 0 2.8-.6 3.4-1.4 1-1 1.3-2.3 1.3-4.3s-.3-3.3-1.3-4.3c-.6-.8-1.7-1.4-3.4-1.4zm1.3 8.3c-.3.3-.7.5-1.3.5-.6 0-1-.2-1.3-.5-.6-.6-.6-1.6-.6-2.7 0-1.2.1-2.1.6-2.7.3-.3.7-.5 1.3-.5.6 0 1 .2 1.3.5.6.6.6 1.5.6 2.7.1 1.2 0 2.2-.6 2.7zm10.8-8.2l-2.2 6.9-2.3-6.9h-2.9l4.1 11.1h2.2l4.1-11.1h-3zm7.6-.1c-2.9 0-4.8 2-4.8 5.7 0 4.5 2.5 5.7 5.1 5.7 2 0 3.1-.6 4.2-1.7l-1.7-1.6c-.7.7-1.3 1-2.5 1-1.6 0-2.4-1-2.4-2.5h6.9v-1.2c0-3.2-1.7-5.4-4.8-5.4zm-2.1 4.6c0-.5.1-.8.3-1.2.3-.7.9-1.2 1.9-1.2.9 0 1.6.5 1.9 1.2.2.4.2.7.3 1.2h-4.4zm11-3.4v-1.1h-2.7v11.1h2.8v-6.7c0-1.4.9-2 1.8-2 .7 0 1 .2 1.5.7l2.1-2.1c-.8-.8-1.5-1-2.6-1-1.3-.1-2.3.4-2.9 1.1zm6.3-2.3v12.3h2.8v-8.8h2v-2.1h-2v-1.2c0-.6.3-1 1-1h1.1v-2.3h-1.6c-2.3 0-3.3 1.6-3.3 3.1zm16.2 1.1c-1.6 0-2.7.6-3.4 1.4-1 1-1.3 2.3-1.3 4.3s.3 3.3 1.3 4.3c.7.7 1.8 1.4 3.4 1.4 1.6 0 2.8-.6 3.4-1.4 1-1 1.3-2.3 1.3-4.3s-.3-3.3-1.3-4.3c-.6-.8-1.8-1.4-3.4-1.4zm1.3 8.3c-.3.3-.7.5-1.3.5-.6 0-1-.2-1.3-.5-.6-.6-.6-1.6-.6-2.7 0-1.2.1-2.1.6-2.7.3-.3.7-.5 1.3-.5.6 0 1 .2 1.3.5.6.6.6 1.5.6 2.7 0 1.2 0 2.2-.6 2.7zm16.5-8.2l-1.8 6.9-2.3-6.9h-2l-2.3 6.9-1.8-6.9H134l3.4 11.1h2.3l2.3-7 2.3 7h2.3l3.4-11.1h-2.9zm-25.1 7.7v-12.1h-2.8v12.3c0 1.6 1 3.2 3.2 3.2h1.6v-2.3h-1c-.7 0-1-.4-1-1.1zm-80.7-5.6l1.4-1.4h-3v-3.5h-1.6v11.1c0 1.6.9 2.9 2.7 2.9h1.1v-1.3h-.8c-1 0-1.5-.6-1.5-1.6v-6.1h1.7v-.1z"/><path fill="#BCBBBB" d="M21 527v-8h3v11H0v-11h3v8"/><path fill="#F48024" d="M5.4 519.1l13.56 1.96.17-2.38-13.26-2.55-.47 2.97zm1.8-6.8l12 5.6 1.1-2.4-12-5.6-1.1 2.4zm3.4-5.9l10.2 8.5 1.7-2-10.2-8.5-1.7 2zm6.5-6.2l-2.1 1.6 7.9 10.6 2.1-1.6-7.9-10.6zM5 525h14v-3H5v3z"/><path d="M29.73 532.55c0 1.07.54 1.7 1.61 1.7.72 0 1.08-.18 1.52-.63l.8.72c-.62.62-1.24.98-2.32.98-1.52 0-2.77-.8-2.77-3.13 0-1.96 1.07-3.13 2.6-3.13 1.6 0 2.59 1.26 2.59 2.95v.54h-4.03zm2.69-1.7a1.3 1.3 0 0 0-1.26-.8 1.3 1.3 0 0 0-1.25.8c-.09.27-.18.45-.18.8h2.78c0-.35 0-.53-.1-.8zm9.75 4.47v-3.75c0-.99-.54-1.34-1.26-1.34-.62 0-1.25.44-1.25 1.34v3.75h-1.25v-3.75c0-.99-.54-1.34-1.25-1.34-.72 0-1.26.44-1.26 1.34v3.75h-1.25v-6.17h1.25v.63c.45-.45.99-.72 1.61-.72a2 2 0 0 1 1.8.9 2.4 2.4 0 0 1 1.96-.9c.63 0 1.17.18 1.52.54.45.45.63 1.07.63 1.7v4.02h-1.25zm8.05-3.4h-1.97v3.4h-1.34v-8.67h3.31c1.7 0 2.77 1.16 2.77 2.6 0 1.51-1.07 2.67-2.77 2.67zm-.09-4.1h-1.88v2.85h1.88c.9 0 1.52-.53 1.52-1.43 0-.89-.62-1.43-1.52-1.43zm7.43 6.78c-.36.45-.99.72-1.88.72a2.8 2.8 0 0 1-1.88-.72c-.63-.62-.72-1.34-.72-2.4 0-1.08.18-1.8.72-2.42.36-.45.98-.72 1.88-.72.9 0 1.43.36 1.88.72.62.62.71 1.34.71 2.41 0 1.16-.09 1.88-.71 2.41zm-.9-4.1c-.27-.27-.53-.36-.9-.36s-.62.09-.89.35c-.35.36-.44.99-.44 1.7 0 .63.09 1.34.44 1.7.27.27.54.36.9.36s.71-.1.9-.36c.35-.36.44-.98.44-1.7 0-.62-.09-1.25-.45-1.7zm6.09.17c-.27-.27-.54-.44-.9-.44a1.3 1.3 0 0 0-1.25 1.34v3.75h-1.25v-6.17h1.25v.63c.36-.45.98-.72 1.61-.72s1.07.18 1.43.63l-.9.98zm3.4 4.65c-1.17 0-1.7-.8-1.7-1.7v-6.25h1.25v1.78h1.43l-.71.99h-.72v3.4c0 .44.18.7.72.7h.53v1.08h-.8zm5.54 0v-.63c-.44.45-.98.72-1.6.72a2.1 2.1 0 0 1-1.53-.54 2.35 2.35 0 0 1-.62-1.7v-3.93h1.25V533c0 .98.54 1.34 1.25 1.34.72 0 1.25-.45 1.25-1.34v-3.76h1.26v6.08h-1.26zm4.57 2.5c-.9 0-1.52-.18-2.15-.8l.8-.8c.36.35.72.53 1.35.53 1.07 0 1.43-.71 1.43-1.6v-.72c-.45.53-.98.71-1.61.71-.63 0-1.16-.18-1.43-.54-.63-.62-.72-1.43-.72-2.5s.1-1.87.72-2.5c.35-.36.9-.54 1.52-.54s1.16.18 1.6.72v-.63h1.17v6.17c0 1.43-1.07 2.5-2.68 2.5zm.18-7.68c-1.17 0-1.26.98-1.26 1.96s.18 1.97 1.26 1.97c1.07 0 1.25-.98 1.25-1.97s-.18-1.96-1.25-1.96zm7.42 5.18v-.63c-.44.45-.98.72-1.6.72a2.1 2.1 0 0 1-1.53-.54 2.36 2.36 0 0 1-.62-1.7v-3.93h1.25V533c0 .98.53 1.34 1.25 1.34s1.25-.45 1.25-1.34v-3.76h1.26v6.08h-1.26zm3.67-2.77c0 1.07.54 1.7 1.61 1.7.72 0 1.08-.18 1.52-.63l.8.72c-.62.62-1.24.98-2.32.98-1.52 0-2.77-.8-2.77-3.13 0-1.96 1.07-3.13 2.6-3.13 1.6 0 2.59 1.26 2.59 2.95v.54h-4.03zm2.5-4.56l-1.07-1.16-1.07 1.16h-1.07l1.6-1.96h1.08l1.61 1.96h-1.07zm.1 2.86a1.3 1.3 0 0 0-1.26-.8 1.3 1.3 0 0 0-1.25.8c-.09.27-.18.45-.18.8h2.78c.09-.35 0-.53-.1-.8zm4.65 4.56c-.99 0-1.88-.18-2.6-.9l.8-.8c.55.54 1.17.63 1.8.63.71 0 1.34-.27 1.34-.9 0-.44-.27-.71-.8-.71l-.99-.1c-1.16-.08-1.79-.62-1.79-1.69 0-1.16 1.08-1.88 2.33-1.88.9 0 1.7.18 2.32.72l-.8.8c-.36-.35-.9-.44-1.52-.44-.72 0-1.16.35-1.16.8 0 .36.17.63.89.72l.98.09c1.17.08 1.88.62 1.88 1.7-.09 1.24-1.16 1.96-2.68 1.96z" fill="#BCBBBB"/></g></svg>